<svg width="287" height="118" viewBox="0 0 287 118" fill="none" xmlns="http://www.w3.org/2000/svg">
<path d="M34.6697 18.8169C34.5722 13.7697 37.6811 2.94015 50.8963 0C51.7734 6.27231 49.756 18.8169 34.6697 18.8169Z" fill="#231154"/>
<path d="M65.5148 28.2254C60.1352 17.1705 43.7819 20.875 36.2777 24.1092C18.4431 15.4358 9.08718 20.434 1.92408 35.1347C-5.23902 49.8355 8.79481 89.5274 24.2905 83.3531C36.687 78.4137 44.3667 81.295 46.6569 83.3531C59.0534 85.47 66.0509 69.7305 68 61.5961C50.8086 49.6003 59.1801 34.3507 65.5148 28.2254Z" fill="#231154"/>
<path d="M16.82 114.22C12.96 114.22 9.96 111.22 9.96 107.4C9.96 103.58 12.96 100.58 16.82 100.58C18.86 100.58 20.76 101.46 21.96 102.94C22.18 103.22 22.26 103.4 22.26 103.6C22.26 103.98 21.92 104.3 21.52 104.3C21.26 104.3 21.04 104.2 20.86 103.98C19.82 102.68 18.46 102.02 16.84 102.02C13.84 102.02 11.58 104.34 11.58 107.4C11.58 110.46 13.84 112.78 16.84 112.78C18.46 112.78 19.82 112.1 20.86 110.82C21.04 110.6 21.26 110.5 21.52 110.5C21.92 110.5 22.26 110.82 22.26 111.2C22.26 111.4 22.18 111.58 21.96 111.86C20.8 113.34 18.88 114.22 16.82 114.22ZM29.0816 104.04C31.6616 104.04 33.5216 105.92 33.5216 108.54V108.64C33.5216 109.28 33.1816 109.6 32.5816 109.6H25.7016C25.9016 111.52 27.3216 112.8 29.2816 112.8C30.2416 112.8 31.1216 112.46 31.8216 111.86C31.9816 111.72 32.1616 111.64 32.3416 111.64C32.7216 111.64 33.0216 111.92 33.0216 112.32C33.0216 112.58 32.9216 112.76 32.6416 113.02C31.6816 113.82 30.5216 114.22 29.2616 114.22C26.3016 114.22 24.1016 112.04 24.1016 109.14C24.1016 106.28 26.3016 104.04 29.0816 104.04ZM29.0416 105.44C27.3816 105.44 26.1016 106.58 25.7616 108.24H31.9416C31.9016 106.6 30.7416 105.44 29.0416 105.44ZM41.4673 104.04C44.2273 104.04 46.2873 106.22 46.2873 109.12C46.2873 112.04 44.2273 114.22 41.4673 114.22C39.9673 114.22 38.6473 113.58 37.8873 112.58V117.04C37.8873 117.5 37.5473 117.84 37.1273 117.84C36.6673 117.84 36.3473 117.48 36.3473 117.04V104.8C36.3473 104.36 36.6673 104.02 37.1273 104.02C37.5473 104.02 37.8873 104.36 37.8873 104.8V105.68C38.6473 104.68 39.9473 104.04 41.4673 104.04ZM41.2473 112.8C43.2473 112.8 44.7073 111.24 44.7073 109.14C44.7073 107.02 43.2473 105.46 41.2473 105.46C39.2273 105.46 37.8673 106.94 37.8673 109.12C37.8673 111.32 39.2073 112.8 41.2473 112.8ZM55.6213 108.8C56.6613 109.24 57.2413 110.06 57.2413 111.14C57.2413 112.84 55.8813 114 53.8813 114H49.9013C49.4413 114 49.1013 113.64 49.1013 113.2V105.06C49.1013 104.62 49.4413 104.26 49.9013 104.26H53.4813C55.3813 104.26 56.5813 105.24 56.5813 106.78C56.5813 107.6 56.2413 108.32 55.6213 108.8ZM50.6413 105.64V108.24H53.5013C54.5413 108.24 55.1013 107.76 55.1013 106.92C55.1013 106.08 54.5613 105.64 53.5013 105.64H50.6413ZM53.7813 112.64C55.0213 112.64 55.7813 112.02 55.7813 111.06C55.7813 110.16 55.0413 109.6 53.7813 109.6H50.6413V112.64H53.7813ZM67.6378 104.04C68.0578 104.04 68.3978 104.4 68.3978 104.84V113.42C68.3978 113.86 68.0578 114.22 67.6178 114.22C67.1978 114.22 66.8578 113.86 66.8578 113.42V106.88L61.5578 113.78C61.2978 114.08 61.0778 114.22 60.8378 114.22C60.3978 114.22 60.0778 113.86 60.0778 113.42V104.84C60.0778 104.4 60.3978 104.04 60.8578 104.04C61.2778 104.04 61.6178 104.4 61.6178 104.84V111.54L66.9178 104.5C67.1578 104.18 67.3578 104.04 67.6378 104.04ZM76.3109 114.22C73.4709 114.22 71.2109 111.96 71.2109 109.12C71.2109 106.28 73.4709 104.04 76.3109 104.04C78.0709 104.04 79.4709 104.88 80.2709 106.08C80.3909 106.26 80.4109 106.38 80.4109 106.5C80.4109 106.88 80.0909 107.2 79.7109 107.2C79.5309 107.2 79.3509 107.16 79.1509 106.92C78.4909 106.1 77.5909 105.46 76.3309 105.46C74.3309 105.46 72.7909 107.04 72.7909 109.12C72.7909 111.22 74.3109 112.8 76.3309 112.8C77.5909 112.8 78.4909 112.16 79.1509 111.34C79.3509 111.12 79.5309 111.08 79.6909 111.08C80.0909 111.08 80.4109 111.38 80.4109 111.78C80.4109 111.9 80.3909 112.02 80.2709 112.2C79.4509 113.38 78.0709 114.22 76.3109 114.22ZM90.3466 104.04C90.7666 104.04 91.1066 104.38 91.1066 104.82V113.44C91.1066 113.88 90.7666 114.22 90.3466 114.22C89.9066 114.22 89.5866 113.88 89.5866 113.44V109.5H84.5866V113.44C84.5866 113.88 84.2666 114.22 83.8266 114.22C83.3666 114.22 83.0466 113.88 83.0466 113.44V104.82C83.0466 104.38 83.3666 104.04 83.8266 104.04C84.2466 104.04 84.5866 104.38 84.5866 104.82V108.14H89.5866V104.82C89.5866 104.38 89.8866 104.04 90.3466 104.04ZM95.5258 104.04C95.9658 104.04 96.2858 104.4 96.2858 104.84V107.4H99.0258C101.306 107.4 102.746 108.72 102.746 110.7C102.746 112.68 101.306 114 99.0258 114H95.5458C95.0858 114 94.7458 113.64 94.7458 113.2V104.84C94.7458 104.4 95.0658 104.04 95.5258 104.04ZM105.906 114.22C105.466 114.22 105.166 113.86 105.166 113.42V104.84C105.166 104.4 105.486 104.04 105.946 104.04C106.386 104.04 106.706 104.4 106.706 104.84V113.42C106.706 113.86 106.346 114.22 105.906 114.22ZM98.9058 108.78H96.2858V112.64H98.9258C100.366 112.64 101.166 111.86 101.166 110.72C101.166 109.58 100.346 108.78 98.9058 108.78ZM114.472 102.36C112.852 102.36 111.432 101 111.432 99.5C111.432 99.1 111.712 98.8 112.072 98.8C112.452 98.8 112.692 99.02 112.732 99.44C112.812 100.38 113.572 101.08 114.472 101.08C115.392 101.08 116.132 100.38 116.232 99.44C116.272 99.06 116.552 98.8 116.872 98.8C117.252 98.8 117.532 99.1 117.532 99.5C117.532 101.04 116.152 102.36 114.472 102.36ZM117.872 104.04C118.292 104.04 118.632 104.4 118.632 104.84V113.42C118.632 113.86 118.292 114.22 117.852 114.22C117.432 114.22 117.092 113.86 117.092 113.42V106.88L111.792 113.78C111.532 114.08 111.312 114.22 111.072 114.22C110.632 114.22 110.312 113.86 110.312 113.42V104.84C110.312 104.4 110.632 104.04 111.092 104.04C111.512 104.04 111.852 104.4 111.852 104.84V111.54L117.152 104.5C117.392 104.18 117.592 104.04 117.872 104.04ZM134.791 104.04C135.231 104.04 135.551 104.4 135.551 104.84V112.64H136.331C136.771 112.64 137.131 112.98 137.131 113.44V116.24C137.131 116.68 136.811 117.04 136.371 117.04C135.911 117.04 135.591 116.68 135.591 116.24V114H128.671C128.211 114 127.871 113.64 127.871 113.2V104.84C127.871 104.4 128.191 104.04 128.651 104.04C129.071 104.04 129.411 104.4 129.411 104.84V112.64H134.011V104.84C134.011 104.4 134.331 104.04 134.791 104.04ZM143.71 104.04C146.29 104.04 148.15 105.92 148.15 108.54V108.64C148.15 109.28 147.81 109.6 147.21 109.6H140.33C140.53 111.52 141.95 112.8 143.91 112.8C144.87 112.8 145.75 112.46 146.45 111.86C146.61 111.72 146.79 111.64 146.97 111.64C147.35 111.64 147.65 111.92 147.65 112.32C147.65 112.58 147.55 112.76 147.27 113.02C146.31 113.82 145.15 114.22 143.89 114.22C140.93 114.22 138.73 112.04 138.73 109.14C138.73 106.28 140.93 104.04 143.71 104.04ZM143.67 105.44C142.01 105.44 140.73 106.58 140.39 108.24H146.57C146.53 106.6 145.37 105.44 143.67 105.44ZM158.276 104.04C158.696 104.04 159.036 104.38 159.036 104.82V113.44C159.036 113.88 158.696 114.22 158.276 114.22C157.836 114.22 157.516 113.88 157.516 113.44V109.5H152.516V113.44C152.516 113.88 152.196 114.22 151.756 114.22C151.296 114.22 150.976 113.88 150.976 113.44V104.82C150.976 104.38 151.296 104.04 151.756 104.04C152.176 104.04 152.516 104.38 152.516 104.82V108.14H157.516V104.82C157.516 104.38 157.816 104.04 158.276 104.04ZM165.495 114.22C165.075 114.22 164.735 113.86 164.735 113.42V105.64H161.895C161.495 105.64 161.175 105.34 161.175 104.94C161.175 104.56 161.495 104.26 161.895 104.26H169.095C169.495 104.26 169.795 104.56 169.795 104.94C169.795 105.34 169.495 105.64 169.095 105.64H166.255V113.42C166.255 113.86 165.915 114.22 165.495 114.22ZM177.073 104.04C179.833 104.04 181.893 106.22 181.893 109.12C181.893 112.04 179.833 114.22 177.073 114.22C175.573 114.22 174.253 113.58 173.493 112.58V117.04C173.493 117.5 173.153 117.84 172.733 117.84C172.273 117.84 171.953 117.48 171.953 117.04V104.8C171.953 104.36 172.273 104.02 172.733 104.02C173.153 104.02 173.493 104.36 173.493 104.8V105.68C174.253 104.68 175.553 104.04 177.073 104.04ZM176.853 112.8C178.853 112.8 180.313 111.24 180.313 109.14C180.313 107.02 178.853 105.46 176.853 105.46C174.833 105.46 173.473 106.94 173.473 109.12C173.473 111.32 174.813 112.8 176.853 112.8Z" fill="black" fill-opacity="0.39"/>
<path d="M119.744 62.52C120.064 63.288 120.256 63.928 120.256 64.44C120.256 66.232 118.784 67.704 116.928 67.704C115.392 67.704 114.368 66.872 113.728 65.336L111.104 59.384H91.2L88.704 65.336C88.128 66.872 87.04 67.704 85.504 67.704C83.648 67.704 82.176 66.232 82.176 64.44C82.176 63.928 82.304 63.288 82.688 62.52L97.984 26.36C98.624 24.824 99.712 24.056 101.184 24.056C102.72 24.056 103.808 24.824 104.448 26.36L119.744 62.52ZM101.184 33.976L93.568 53.624H108.672L101.184 33.976ZM144.518 34.872C153.414 34.872 159.942 41.848 159.942 51.256C159.942 60.728 153.414 67.704 144.518 67.704C140.102 67.704 136.39 65.976 134.022 63.16V75.832C134.022 77.816 132.614 79.288 130.694 79.288C128.774 79.288 127.302 77.816 127.302 75.832V38.2C127.302 36.28 128.71 34.808 130.694 34.808C132.55 34.808 133.958 36.28 133.958 38.2V39.48C136.262 36.6 140.038 34.872 144.518 34.872ZM143.43 61.56C148.998 61.56 153.03 57.208 153.03 51.32C153.03 45.368 148.998 41.016 143.43 41.016C137.798 41.016 133.958 45.176 133.958 51.256C133.958 57.4 137.734 61.56 143.43 61.56ZM184.893 34.872C193.789 34.872 200.317 41.848 200.317 51.256C200.317 60.728 193.789 67.704 184.893 67.704C180.477 67.704 176.765 65.976 174.397 63.16V75.832C174.397 77.816 172.989 79.288 171.069 79.288C169.149 79.288 167.677 77.816 167.677 75.832V38.2C167.677 36.28 169.085 34.808 171.069 34.808C172.925 34.808 174.333 36.28 174.333 38.2V39.48C176.637 36.6 180.413 34.872 184.893 34.872ZM183.805 61.56C189.373 61.56 193.405 57.208 193.405 51.32C193.405 45.368 189.373 41.016 183.805 41.016C178.173 41.016 174.333 45.176 174.333 51.256C174.333 57.4 178.109 61.56 183.805 61.56ZM211.444 67.704C209.524 67.704 208.052 66.232 208.052 64.248V21.752C208.052 19.768 209.46 18.296 211.444 18.296C213.364 18.296 214.772 19.768 214.772 21.752V64.248C214.772 66.232 213.364 67.704 211.444 67.704ZM238.697 34.872C247.081 34.872 253.289 41.016 253.289 49.464V49.784C253.289 52.088 251.817 53.496 249.449 53.496H229.353C230.249 58.552 234.025 61.752 239.593 61.752C242.281 61.752 244.841 60.92 246.953 59.32C247.529 58.936 248.105 58.68 248.681 58.68C250.281 58.68 251.497 59.896 251.497 61.496C251.497 62.648 251.049 63.416 249.833 64.312C246.825 66.552 243.305 67.704 239.401 67.704C229.673 67.704 222.505 60.728 222.505 51.32C222.505 42.04 229.545 34.872 238.697 34.872ZM238.505 40.568C233.961 40.568 230.505 43.64 229.481 48.248H246.569C246.441 43.704 243.241 40.568 238.505 40.568Z" fill="black"/>
</svg>
