<svg width="173" height="20" viewBox="0 0 173 20" fill="none" xmlns="http://www.w3.org/2000/svg">
<path d="M7.82 16.22C3.96 16.22 0.96 13.22 0.96 9.4C0.96 5.58 3.96 2.58 7.82 2.58C9.86 2.58 11.76 3.46 12.96 4.94C13.18 5.22 13.26 5.4 13.26 5.6C13.26 5.98 12.92 6.3 12.52 6.3C12.26 6.3 12.04 6.2 11.86 5.98C10.82 4.68 9.46 4.02 7.84 4.02C4.84 4.02 2.58 6.34 2.58 9.4C2.58 12.46 4.84 14.78 7.84 14.78C9.46 14.78 10.82 14.1 11.86 12.82C12.04 12.6 12.26 12.5 12.52 12.5C12.92 12.5 13.26 12.82 13.26 13.2C13.26 13.4 13.18 13.58 12.96 13.86C11.8 15.34 9.88 16.22 7.82 16.22ZM20.0816 6.04C22.6616 6.04 24.5216 7.92 24.5216 10.54V10.64C24.5216 11.28 24.1816 11.6 23.5816 11.6H16.7016C16.9016 13.52 18.3216 14.8 20.2816 14.8C21.2416 14.8 22.1216 14.46 22.8216 13.86C22.9816 13.72 23.1616 13.64 23.3416 13.64C23.7216 13.64 24.0216 13.92 24.0216 14.32C24.0216 14.58 23.9216 14.76 23.6416 15.02C22.6816 15.82 21.5216 16.22 20.2616 16.22C17.3016 16.22 15.1016 14.04 15.1016 11.14C15.1016 8.28 17.3016 6.04 20.0816 6.04ZM20.0416 7.44C18.3816 7.44 17.1016 8.58 16.7616 10.24H22.9416C22.9016 8.6 21.7416 7.44 20.0416 7.44ZM32.4673 6.04C35.2273 6.04 37.2873 8.22 37.2873 11.12C37.2873 14.04 35.2273 16.22 32.4673 16.22C30.9673 16.22 29.6473 15.58 28.8873 14.58V19.04C28.8873 19.5 28.5473 19.84 28.1273 19.84C27.6673 19.84 27.3473 19.48 27.3473 19.04V6.8C27.3473 6.36 27.6673 6.02 28.1273 6.02C28.5473 6.02 28.8873 6.36 28.8873 6.8V7.68C29.6473 6.68 30.9473 6.04 32.4673 6.04ZM32.2473 14.8C34.2473 14.8 35.7073 13.24 35.7073 11.14C35.7073 9.02 34.2473 7.46 32.2473 7.46C30.2273 7.46 28.8673 8.94 28.8673 11.12C28.8673 13.32 30.2073 14.8 32.2473 14.8ZM46.6213 10.8C47.6613 11.24 48.2413 12.06 48.2413 13.14C48.2413 14.84 46.8813 16 44.8813 16H40.9013C40.4413 16 40.1013 15.64 40.1013 15.2V7.06C40.1013 6.62 40.4413 6.26 40.9013 6.26H44.4813C46.3813 6.26 47.5813 7.24 47.5813 8.78C47.5813 9.6 47.2413 10.32 46.6213 10.8ZM41.6413 7.64V10.24H44.5013C45.5413 10.24 46.1013 9.76 46.1013 8.92C46.1013 8.08 45.5613 7.64 44.5013 7.64H41.6413ZM44.7813 14.64C46.0213 14.64 46.7813 14.02 46.7813 13.06C46.7813 12.16 46.0413 11.6 44.7813 11.6H41.6413V14.64H44.7813ZM58.6378 6.04C59.0578 6.04 59.3978 6.4 59.3978 6.84V15.42C59.3978 15.86 59.0578 16.22 58.6178 16.22C58.1978 16.22 57.8578 15.86 57.8578 15.42V8.88L52.5578 15.78C52.2978 16.08 52.0778 16.22 51.8378 16.22C51.3978 16.22 51.0778 15.86 51.0778 15.42V6.84C51.0778 6.4 51.3978 6.04 51.8578 6.04C52.2778 6.04 52.6178 6.4 52.6178 6.84V13.54L57.9178 6.5C58.1578 6.18 58.3578 6.04 58.6378 6.04ZM67.3109 16.22C64.4709 16.22 62.2109 13.96 62.2109 11.12C62.2109 8.28 64.4709 6.04 67.3109 6.04C69.0709 6.04 70.4709 6.88 71.2709 8.08C71.3909 8.26 71.4109 8.38 71.4109 8.5C71.4109 8.88 71.0909 9.2 70.7109 9.2C70.5309 9.2 70.3509 9.16 70.1509 8.92C69.4909 8.1 68.5909 7.46 67.3309 7.46C65.3309 7.46 63.7909 9.04 63.7909 11.12C63.7909 13.22 65.3109 14.8 67.3309 14.8C68.5909 14.8 69.4909 14.16 70.1509 13.34C70.3509 13.12 70.5309 13.08 70.6909 13.08C71.0909 13.08 71.4109 13.38 71.4109 13.78C71.4109 13.9 71.3909 14.02 71.2709 14.2C70.4509 15.38 69.0709 16.22 67.3109 16.22ZM81.3466 6.04C81.7666 6.04 82.1066 6.38 82.1066 6.82V15.44C82.1066 15.88 81.7666 16.22 81.3466 16.22C80.9066 16.22 80.5866 15.88 80.5866 15.44V11.5H75.5866V15.44C75.5866 15.88 75.2666 16.22 74.8266 16.22C74.3666 16.22 74.0466 15.88 74.0466 15.44V6.82C74.0466 6.38 74.3666 6.04 74.8266 6.04C75.2466 6.04 75.5866 6.38 75.5866 6.82V10.14H80.5866V6.82C80.5866 6.38 80.8866 6.04 81.3466 6.04ZM86.5258 6.04C86.9658 6.04 87.2858 6.4 87.2858 6.84V9.4H90.0258C92.3058 9.4 93.7458 10.72 93.7458 12.7C93.7458 14.68 92.3058 16 90.0258 16H86.5458C86.0858 16 85.7458 15.64 85.7458 15.2V6.84C85.7458 6.4 86.0658 6.04 86.5258 6.04ZM96.9058 16.22C96.4658 16.22 96.1658 15.86 96.1658 15.42V6.84C96.1658 6.4 96.4858 6.04 96.9458 6.04C97.3858 6.04 97.7058 6.4 97.7058 6.84V15.42C97.7058 15.86 97.3458 16.22 96.9058 16.22ZM89.9058 10.78H87.2858V14.64H89.9258C91.3658 14.64 92.1658 13.86 92.1658 12.72C92.1658 11.58 91.3458 10.78 89.9058 10.78ZM105.472 4.36C103.852 4.36 102.432 3 102.432 1.5C102.432 1.1 102.712 0.799999 103.072 0.799999C103.452 0.799999 103.692 1.02 103.732 1.44C103.812 2.38 104.572 3.08 105.472 3.08C106.392 3.08 107.132 2.38 107.232 1.44C107.272 1.06 107.552 0.799999 107.872 0.799999C108.252 0.799999 108.532 1.1 108.532 1.5C108.532 3.04 107.152 4.36 105.472 4.36ZM108.872 6.04C109.292 6.04 109.632 6.4 109.632 6.84V15.42C109.632 15.86 109.292 16.22 108.852 16.22C108.432 16.22 108.092 15.86 108.092 15.42V8.88L102.792 15.78C102.532 16.08 102.312 16.22 102.072 16.22C101.632 16.22 101.312 15.86 101.312 15.42V6.84C101.312 6.4 101.632 6.04 102.092 6.04C102.512 6.04 102.852 6.4 102.852 6.84V13.54L108.152 6.5C108.392 6.18 108.592 6.04 108.872 6.04ZM125.791 6.04C126.231 6.04 126.551 6.4 126.551 6.84V14.64H127.331C127.771 14.64 128.131 14.98 128.131 15.44V18.24C128.131 18.68 127.811 19.04 127.371 19.04C126.911 19.04 126.591 18.68 126.591 18.24V16H119.671C119.211 16 118.871 15.64 118.871 15.2V6.84C118.871 6.4 119.191 6.04 119.651 6.04C120.071 6.04 120.411 6.4 120.411 6.84V14.64H125.011V6.84C125.011 6.4 125.331 6.04 125.791 6.04ZM134.71 6.04C137.29 6.04 139.15 7.92 139.15 10.54V10.64C139.15 11.28 138.81 11.6 138.21 11.6H131.33C131.53 13.52 132.95 14.8 134.91 14.8C135.87 14.8 136.75 14.46 137.45 13.86C137.61 13.72 137.79 13.64 137.97 13.64C138.35 13.64 138.65 13.92 138.65 14.32C138.65 14.58 138.55 14.76 138.27 15.02C137.31 15.82 136.15 16.22 134.89 16.22C131.93 16.22 129.73 14.04 129.73 11.14C129.73 8.28 131.93 6.04 134.71 6.04ZM134.67 7.44C133.01 7.44 131.73 8.58 131.39 10.24H137.57C137.53 8.6 136.37 7.44 134.67 7.44ZM149.276 6.04C149.696 6.04 150.036 6.38 150.036 6.82V15.44C150.036 15.88 149.696 16.22 149.276 16.22C148.836 16.22 148.516 15.88 148.516 15.44V11.5H143.516V15.44C143.516 15.88 143.196 16.22 142.756 16.22C142.296 16.22 141.976 15.88 141.976 15.44V6.82C141.976 6.38 142.296 6.04 142.756 6.04C143.176 6.04 143.516 6.38 143.516 6.82V10.14H148.516V6.82C148.516 6.38 148.816 6.04 149.276 6.04ZM156.495 16.22C156.075 16.22 155.735 15.86 155.735 15.42V7.64H152.895C152.495 7.64 152.175 7.34 152.175 6.94C152.175 6.56 152.495 6.26 152.895 6.26H160.095C160.495 6.26 160.795 6.56 160.795 6.94C160.795 7.34 160.495 7.64 160.095 7.64H157.255V15.42C157.255 15.86 156.915 16.22 156.495 16.22ZM168.073 6.04C170.833 6.04 172.893 8.22 172.893 11.12C172.893 14.04 170.833 16.22 168.073 16.22C166.573 16.22 165.253 15.58 164.493 14.58V19.04C164.493 19.5 164.153 19.84 163.733 19.84C163.273 19.84 162.953 19.48 162.953 19.04V6.8C162.953 6.36 163.273 6.02 163.733 6.02C164.153 6.02 164.493 6.36 164.493 6.8V7.68C165.253 6.68 166.553 6.04 168.073 6.04ZM167.853 14.8C169.853 14.8 171.313 13.24 171.313 11.14C171.313 9.02 169.853 7.46 167.853 7.46C165.833 7.46 164.473 8.94 164.473 11.12C164.473 13.32 165.813 14.8 167.853 14.8Z" fill="black" fill-opacity="0.39"/>
</svg>
