<svg width="113" height="18" viewBox="0 0 113 18" fill="none" xmlns="http://www.w3.org/2000/svg">
<path d="M9.5 0.385303L11.5146 6.2594L11.5436 6.34385H11.6329H18.133L12.8802 9.95934L12.8021 10.0131L12.8328 10.1029L14.8428 15.9634L9.57087 12.3347L9.5 12.2859L9.42913 12.3347L4.15715 15.9634L6.16716 10.1029L6.19794 10.0131L6.11979 9.95934L0.867036 6.34385H7.36712H7.45639L7.48536 6.2594L9.5 0.385303Z" fill="#FAFF00" stroke="black" stroke-width="0.25"/>
<path d="M31.5 0.385303L33.5146 6.2594L33.5436 6.34385H33.6329H40.133L34.8802 9.95934L34.8021 10.0131L34.8328 10.1029L36.8428 15.9634L31.5709 12.3347L31.5 12.2859L31.4291 12.3347L26.1572 15.9634L28.1672 10.1029L28.1979 10.0131L28.1198 9.95934L22.867 6.34385H29.3671H29.4564L29.4854 6.2594L31.5 0.385303Z" fill="#FAFF00" stroke="black" stroke-width="0.25"/>
<path d="M55.5 0.385303L57.5146 6.2594L57.5436 6.34385H57.6329H64.133L58.8802 9.95934L58.8021 10.0131L58.8328 10.1029L60.8428 15.9634L55.5709 12.3347L55.5 12.2859L55.4291 12.3347L50.1572 15.9634L52.1672 10.1029L52.1979 10.0131L52.1198 9.95934L46.867 6.34385H53.3671H53.4564L53.4854 6.2594L55.5 0.385303Z" fill="#FAFF00" stroke="black" stroke-width="0.25"/>
<path d="M79.5 0.385303L81.5146 6.2594L81.5436 6.34385H81.6329H88.133L82.8802 9.95934L82.8021 10.0131L82.8328 10.1029L84.8428 15.9634L79.5709 12.3347L79.5 12.2859L79.4291 12.3347L74.1572 15.9634L76.1672 10.1029L76.1979 10.0131L76.1198 9.95934L70.867 6.34385H77.3671H77.4564L77.4854 6.2594L79.5 0.385303Z" fill="#FAFF00" stroke="black" stroke-width="0.25"/>
<path d="M103.5 0.385303L105.515 6.2594L105.544 6.34385H105.633H112.133L106.88 9.95934L106.802 10.0131L106.833 10.1029L108.843 15.9634L103.571 12.3347L103.5 12.2859L103.429 12.3347L98.1572 15.9634L100.167 10.1029L100.198 10.0131L100.12 9.95934L94.867 6.34385H101.367H101.456L101.485 6.2594L103.5 0.385303Z" fill="#FAFF00" stroke="black" stroke-width="0.25"/>
</svg>
