<svg width="281" height="250" viewBox="0 0 281 250" fill="none" xmlns="http://www.w3.org/2000/svg">
<path fill-rule="evenodd" clip-rule="evenodd" d="M11.7083 31.25C11.7083 28.4874 12.9419 25.8378 15.1376 23.8843C17.3333 21.9308 20.3114 20.8334 23.4166 20.8334H152.208C155.314 20.8334 158.292 21.9308 160.487 23.8843C162.683 25.8378 163.917 28.4874 163.917 31.25V83.3334H210.75C218.438 83.3334 226.05 84.6805 233.153 87.298C240.256 89.9154 246.709 93.7518 252.145 98.5882C257.581 103.425 261.893 109.166 264.835 115.485C267.777 121.804 269.292 128.577 269.292 135.417V177.083C269.293 183.789 266.87 190.317 262.382 195.704C257.893 201.091 251.577 205.052 244.365 207C242.217 213.302 237.887 218.84 231.992 222.822C226.097 226.805 218.939 229.028 211.539 229.176C204.139 229.324 196.875 227.388 190.785 223.645C184.695 219.902 180.09 214.543 177.627 208.333H103.385C100.921 214.543 96.3162 219.902 90.2262 223.645C84.1363 227.388 76.8729 229.324 69.4729 229.176C62.0729 229.028 54.9145 226.805 49.0196 222.822C43.1246 218.84 38.7944 213.302 36.6471 207C29.4329 205.053 23.1136 201.094 18.6229 195.707C14.1321 190.32 11.7079 183.79 11.7083 177.083V135.417H81.9583C85.0636 135.417 88.0416 134.319 90.2374 132.366C92.4331 130.412 93.6666 127.763 93.6666 125C93.6666 122.237 92.4331 119.588 90.2374 117.634C88.0416 115.681 85.0636 114.583 81.9583 114.583H11.7083V93.75H58.5416C61.6469 93.75 64.625 92.6526 66.8207 90.6991C69.0164 88.7456 70.25 86.096 70.25 83.3334C70.25 80.5707 69.0164 77.9212 66.8207 75.9677C64.625 74.0142 61.6469 72.9167 58.5416 72.9167H11.7083V31.25ZM163.917 187.5H177.627C179.942 181.671 184.147 176.584 189.712 172.883C195.277 169.181 201.951 167.031 208.889 166.704C215.828 166.377 222.72 167.889 228.693 171.047C234.665 174.206 239.451 178.869 242.444 184.448C243.533 183.482 244.397 182.334 244.986 181.07C245.574 179.806 245.877 178.451 245.875 177.083V135.417C245.875 127.129 242.174 119.18 235.587 113.32C229 107.459 220.066 104.167 210.75 104.167H163.917V187.5ZM81.9583 197.917C81.9583 195.154 80.7248 192.505 78.529 190.551C76.3333 188.598 73.3552 187.5 70.25 187.5C67.1447 187.5 64.1667 188.598 61.9709 190.551C59.7752 192.505 58.5416 195.154 58.5416 197.917C58.5416 200.679 59.7752 203.329 61.9709 205.282C64.1667 207.236 67.1447 208.333 70.25 208.333C73.3552 208.333 76.3333 207.236 78.529 205.282C80.7248 203.329 81.9583 200.679 81.9583 197.917ZM202.472 190.552C201.382 191.517 200.517 192.665 199.928 193.929C199.34 195.193 199.038 196.548 199.042 197.917C199.041 200.327 199.98 202.662 201.698 204.526C203.416 206.389 205.807 207.664 208.464 208.135C211.12 208.606 213.878 208.242 216.267 207.107C218.657 205.971 220.529 204.133 221.566 201.907C222.603 199.681 222.741 197.203 221.955 194.897C221.169 192.591 219.508 190.598 217.256 189.259C215.004 187.92 212.3 187.316 209.604 187.552C206.908 187.788 204.388 188.848 202.472 190.552Z" fill="#231154"/>
</svg>
