<svg width="77" height="77" viewBox="0 0 77 77" fill="none" xmlns="http://www.w3.org/2000/svg">
<g clip-path="url(#clip0_0_1118)">
<path d="M38.5 0C28.2915 0 18.492 4.05874 11.2793 11.2763C4.05912 18.4967 0.00200001 28.289 0 38.5C0 48.7067 4.06055 58.5062 11.2793 65.7237C18.492 72.9413 28.2915 77 38.5 77C48.7085 77 58.508 72.9413 65.7207 65.7237C72.9395 58.5062 77 48.7067 77 38.5C77 28.2933 72.9395 18.4938 65.7207 11.2763C58.508 4.05874 48.7085 0 38.5 0Z" fill="url(#paint0_linear_0_1118)"/>
<path d="M17.4272 38.0933C28.6524 33.2038 36.1358 29.9801 39.8775 28.4226C50.5733 23.9753 52.7931 23.2028 54.2428 23.1767C54.5617 23.1716 55.2715 23.2504 55.7347 23.6248C56.1197 23.9407 56.228 24.3678 56.2821 24.6677C56.3302 24.9672 56.3964 25.65 56.3423 26.183C55.7648 32.2708 53.2563 47.044 51.981 53.8627C51.4456 56.7478 50.3808 57.7151 49.3521 57.8095C47.1143 58.0153 45.4179 56.3321 43.2523 54.913C39.8655 52.6914 37.9525 51.3091 34.662 49.1416C30.8601 46.6367 33.3265 45.2597 35.4921 43.0099C36.0576 42.421 45.9112 33.4607 46.0977 32.648C46.1217 32.5463 46.1458 32.1673 45.9172 31.9676C45.6946 31.7673 45.3638 31.8359 45.1231 31.89C44.7803 31.967 39.3722 35.5451 28.881 42.6237C27.347 43.6788 25.9574 44.1932 24.7061 44.1661C23.3345 44.1366 20.6877 43.3889 18.7206 42.75C16.3143 41.9662 14.3953 41.5517 14.5638 40.2205C14.648 39.5275 15.6045 38.8182 17.4272 38.0933Z" fill="white"/>
</g>
<defs>
<linearGradient id="paint0_linear_0_1118" x1="3850" y1="0" x2="3850" y2="7700" gradientUnits="userSpaceOnUse">
<stop stop-color="#2AABEE"/>
<stop offset="1" stop-color="#229ED9"/>
</linearGradient>
<clipPath id="clip0_0_1118">
<rect width="77" height="77" fill="white"/>
</clipPath>
</defs>
</svg>
