<svg width="77" height="77" viewBox="0 0 77 77" fill="none" xmlns="http://www.w3.org/2000/svg">
<g clip-path="url(#clip0_0_1121)">
<path d="M58.9531 0H18.0469C8.07986 0 0 8.07986 0 18.0469V58.9531C0 68.9201 8.07986 77 18.0469 77H58.9531C68.9201 77 77 68.9201 77 58.9531V18.0469C77 8.07986 68.9201 0 58.9531 0Z" fill="url(#paint0_radial_0_1121)"/>
<path d="M58.9531 0H18.0469C8.07986 0 0 8.07986 0 18.0469V58.9531C0 68.9201 8.07986 77 18.0469 77H58.9531C68.9201 77 77 68.9201 77 58.9531V18.0469C77 8.07986 68.9201 0 58.9531 0Z" fill="url(#paint1_radial_0_1121)"/>
<path d="M38.5027 8.42188C30.3341 8.42188 29.3087 8.45767 26.1006 8.60355C22.8985 8.75033 20.7127 9.25714 18.8003 10.001C16.8218 10.7692 15.1437 11.7969 13.472 13.4693C11.7987 15.1413 10.771 16.8194 10.0004 18.797C9.25444 20.71 8.74702 22.8967 8.60295 26.0973C8.45947 29.3057 8.42188 30.3314 8.42188 38.5003C8.42188 46.6692 8.45797 47.6913 8.60355 50.8994C8.75093 54.1015 9.25775 56.2873 10.001 58.1997C10.7698 60.1782 11.7975 61.8563 13.4699 63.528C15.1413 65.2013 16.8194 66.2314 18.7964 66.9996C20.7103 67.7435 22.8964 68.2503 26.0979 68.3971C29.3063 68.5429 30.3308 68.5787 38.4991 68.5787C46.6686 68.5787 47.6907 68.5429 50.8988 68.3971C54.1009 68.2503 56.2891 67.7435 58.203 66.9996C60.1806 66.2314 61.8563 65.2013 63.5274 63.528C65.2006 61.8563 66.2281 60.1782 66.999 58.2006C67.7383 56.2873 68.2461 54.1009 68.3965 50.9C68.5405 47.6919 68.5781 46.6692 68.5781 38.5003C68.5781 30.3314 68.5405 29.3063 68.3965 26.0979C68.2461 22.8958 67.7383 20.7103 66.999 18.7979C66.2281 16.8194 65.2006 15.1413 63.5274 13.4693C61.8545 11.7963 60.1812 10.7686 58.2012 10.0013C56.2837 9.25714 54.0967 8.75003 50.8946 8.60355C47.6862 8.45767 46.6647 8.42188 38.4934 8.42188H38.5027ZM35.8044 13.8423C36.6054 13.8411 37.499 13.8423 38.5027 13.8423C46.5339 13.8423 47.4855 13.8711 50.657 14.0152C53.5896 14.1494 55.1813 14.6393 56.2416 15.0511C57.6453 15.5961 58.646 16.2479 59.6982 17.3009C60.7509 18.3537 61.4024 19.3562 61.9489 20.7599C62.3607 21.8187 62.8513 23.4104 62.9848 26.343C63.1289 29.5139 63.1602 30.4661 63.1602 38.4934C63.1602 46.5206 63.1289 47.4732 62.9848 50.6437C62.8507 53.5764 62.3607 55.1681 61.9489 56.2271C61.4039 57.6309 60.7509 58.6304 59.6982 59.6825C58.6454 60.7353 57.6459 61.3867 56.2416 61.9321C55.1825 62.3456 53.5896 62.8344 50.657 62.9686C47.4861 63.1126 46.5339 63.1439 38.5027 63.1439C30.4712 63.1439 29.5193 63.1126 26.3487 62.9686C23.4161 62.8332 21.8244 62.3432 20.7632 61.9315C19.3598 61.3861 18.357 60.7347 17.3042 59.6819C16.2515 58.6292 15.6 57.6291 15.0535 56.2247C14.6417 55.1657 14.1512 53.574 14.0176 50.6413C13.8735 47.4705 13.8447 46.5182 13.8447 38.4859C13.8447 30.4538 13.8735 29.5063 14.0176 26.3355C14.1518 23.4029 14.6417 21.8112 15.0535 20.7509C15.5988 19.3472 16.2515 18.3446 17.3045 17.2919C18.3573 16.2392 19.3598 15.5874 20.7635 15.0412C21.8238 14.6276 23.4161 14.1388 26.3487 14.0041C29.1234 13.8786 30.1987 13.8411 35.8044 13.8347V13.8423ZM54.5584 18.8364C52.5657 18.8364 50.949 20.4516 50.949 22.4446C50.949 24.4373 52.5657 26.054 54.5584 26.054C56.5511 26.054 58.1678 24.4373 58.1678 22.4446C58.1678 20.4519 56.5511 18.8352 54.5584 18.8352V18.8364ZM38.5027 23.0537C29.9726 23.0537 23.0564 29.9698 23.0564 38.5003C23.0564 47.0308 29.9726 53.9436 38.5027 53.9436C47.0332 53.9436 53.9469 47.0308 53.9469 38.5003C53.9469 29.9701 47.0326 23.0537 38.5021 23.0537H38.5027ZM38.5027 28.4741C44.0398 28.4741 48.5289 32.9626 48.5289 38.5003C48.5289 44.0374 44.0398 48.5265 38.5027 48.5265C32.9653 48.5265 28.4768 44.0374 28.4768 38.5003C28.4768 32.9626 32.9653 28.4741 38.5027 28.4741Z" fill="white"/>
</g>
<defs>
<radialGradient id="paint0_radial_0_1121" cx="0" cy="0" r="1" gradientUnits="userSpaceOnUse" gradientTransform="translate(20.4531 82.9305) rotate(-90) scale(76.3127 70.9769)">
<stop stop-color="#FFDD55"/>
<stop offset="0.1" stop-color="#FFDD55"/>
<stop offset="0.5" stop-color="#FF543E"/>
<stop offset="1" stop-color="#C837AB"/>
</radialGradient>
<radialGradient id="paint1_radial_0_1121" cx="0" cy="0" r="1" gradientUnits="userSpaceOnUse" gradientTransform="translate(-12.8978 5.54671) rotate(78.681) scale(34.1122 140.612)">
<stop stop-color="#3771C8"/>
<stop offset="0.128" stop-color="#3771C8"/>
<stop offset="1" stop-color="#6600FF" stop-opacity="0"/>
</radialGradient>
<clipPath id="clip0_0_1121">
<rect width="77" height="77" fill="white"/>
</clipPath>
</defs>
</svg>
