<svg width="77" height="77" viewBox="0 0 77 77" fill="none" xmlns="http://www.w3.org/2000/svg">
<path d="M48.3593 6.41669H28.6762C10.6902 6.41669 6.41675 10.6934 6.41675 28.6408V48.3271C6.41675 66.3066 10.6614 70.5834 28.6409 70.5834H48.3272C66.3067 70.5834 70.5834 66.3387 70.5834 48.3592V28.6761C70.5834 10.6902 66.3388 6.41669 48.3593 6.41669ZM58.2185 52.1996H53.5376C51.7666 52.1996 51.234 50.7655 48.0577 47.5892C45.2857 44.9167 44.1147 44.583 43.4121 44.583C42.4431 44.583 42.1768 44.8493 42.1768 46.1872V50.3965C42.1768 51.5355 41.8079 52.2028 38.8338 52.2028C35.9474 52.0088 33.1483 51.1319 30.6673 49.6443C28.1862 48.1566 26.094 46.1008 24.5631 43.6462C20.9286 39.1224 18.3997 33.8131 17.1775 28.1403C17.1775 27.4377 17.4438 26.8024 18.7817 26.8024H23.4626C24.6658 26.8024 25.0989 27.3382 25.5673 28.5734C27.8388 35.2596 31.7145 41.0731 33.2865 41.0731C33.8897 41.0731 34.1528 40.8068 34.1528 39.3021V32.417C33.9539 29.2761 32.2855 29.0098 32.2855 27.874C32.307 27.5745 32.4443 27.295 32.6683 27.095C32.8923 26.8949 33.1854 26.79 33.4855 26.8024H40.839C41.8432 26.8024 42.1768 27.3029 42.1768 28.5061V37.7974C42.1768 38.8016 42.61 39.1353 42.9116 39.1353C43.5147 39.1353 43.9799 38.8016 45.0836 37.6979C47.4541 34.8071 49.3909 31.5863 50.8329 28.1371C50.9803 27.7228 51.2592 27.3681 51.6271 27.1271C51.9949 26.8861 52.4315 26.7721 52.8702 26.8024H57.5512C58.9532 26.8024 59.2516 27.5051 58.9532 28.5061C57.2512 32.3189 55.1452 35.9383 52.6713 39.3021C52.1676 40.0721 51.9655 40.4731 52.6713 41.3747C53.1365 42.0773 54.776 43.4473 55.8796 44.7499C57.4835 46.3497 58.8154 48.2006 59.8227 50.2297C60.2237 51.5323 59.5532 52.1996 58.2185 52.1996Z" fill="#2860EF"/>
</svg>
